<svg xmlns="http://www.w3.org/2000/svg" viewBox="0 0 24 24" fill="none">
	<path fill-rule="evenodd" clip-rule="evenodd" d="M12 24C5.4 24 0 18.6 0 12 0 5.4 5.4 0 12 0S24 5.4 24 12 18.6 24 12 24Zm4.4-7.4c1.5.4 2.6.9 3.6 1.5-1.4 1.8-3.5 3.1-5.8 3.7.2-.4.5-.8.7-1.2.6-1.1 1.1-2.4 1.5-4ZM7.6 7.4c.4-1.6.9-2.9 1.5-4 .2-.4.5-.8.7-1.2C7.5 2.8 5.4 4.1 4 5.9 5 6.5 6.1 7 7.6 7.4ZM20 5.9c-1.4-1.8-3.5-3.1-5.8-3.7.2.4.5.8.7 1.2.6 1.1 1.1 2.4 1.5 4C17.9 7 19 6.5 20 5.9ZM16.8 9.4c1.7-.5 3.1-1.1 4.2-1.7.6 1.3 1 2.7 1 4.3s-.4 3-1 4.3c-1.1-.6-2.5-1.2-4.2-1.7.1-.8.2-1.7.2-2.6s-.1-1.8-.2-2.6ZM9.5 7.8c.4-1.4.9-2.5 1.4-3.5.4-.7.8-1.3 1.1-1.7.3.4.7 1 1.1 1.7.5 1 1 2.1 1.4 3.5-.8.1-1.6.2-2.5.2s-1.7-.1-2.5-.2ZM7.2 9.4C5.5 8.9 4.1 8.3 3 7.7 2.4 9 2 10.4 2 12s.4 3 1 4.3c1.1-.6 2.5-1.2 4.2-1.7-.1-.8-.2-1.7-.2-2.6s.1-1.8.2-2.6ZM9 12c0-.8.1-1.5.1-2.2.9.1 1.9.2 2.9.2s2-.1 2.9-.2c0 .7.1 1.4.1 2.2s-.1 1.5-.1 2.2C14 14.1 13 14 12 14s-2 .1-2.9.2c0-.7-.1-1.4-.1-2.2Zm1.9 7.7c.4.7.8 1.3 1.1 1.7.3-.4.7-1 1.1-1.7.5-1 1-2.1 1.4-3.5-.8-.1-1.6-.2-2.5-.2s-1.7.1-2.5.2c.4 1.4.9 2.5 1.4 3.5Zm-1.8.9c-.6-1.1-1.1-2.4-1.5-4-1.5.4-2.6.9-3.6 1.5 1.4 1.8 3.5 3.1 5.8 3.7-.2-.4-.5-.8-.7-1.2Z" fill="white"/>
</svg>